<svg xmlns="http://www.w3.org/2000/svg" version="1.1" xmlns:xlink="http://www.w3.org/1999/xlink" xmlns:svgjs="http://svgjs.dev/svgjs" width="1440" height="560" preserveAspectRatio="none" viewBox="0 0 1440 560" element-id="211"><g mask="url(&quot;#SvgjsMask1048&quot;)" fill="none"><path d="M1115.53 571.9 L1188.39 484.51L1202.2347635349427 578.4797635349427z" stroke="#037b0b" stroke-width="1.62" stroke-dasharray="4, 4"></path><rect width="214.28" height="214.28" clip-path="url(&quot;#SvgjsClipPath1049&quot;)" x="305.5" y="166.57" fill="url(&quot;#SvgjsPattern1050&quot;)" transform="rotate(344.53, 412.64, 273.71)"></rect><path d="M1294.79 319.06 L1277.53 190.08L1335.076400564734 205.65359943526587z" fill="#e73635"></path><path d="M249.52 459.68L255.33 448.27 267.74 451.43 273.55 440.01 285.96 443.17 291.76 431.76 304.17 434.91" stroke="#d3b714" stroke-width="1" stroke-dasharray="4, 4"></path><path d="M23.72 202.03L32.25 211.58 24.8 222 33.33 231.56 25.88 241.97 34.41 251.53 26.96 261.94M15.73 202.46L24.26 212.02 16.81 222.43 25.34 231.99 17.89 242.4 26.42 251.96 18.97 262.37M7.75 202.89L16.27 212.45 8.82 222.86 17.35 232.42 9.9 242.83 18.43 252.39 10.98 262.81" stroke="#037b0b" stroke-width="1" stroke-dasharray="4, 4"></path><path d="M842.0600000000001 115.07 L829.74 218.38L782.9777105411987 113.80271054119859z" stroke="#e73635" stroke-width="1"></path><path d="M1194.74 76.2L1196.54 63.52 1209.3 62.48 1211.09 49.8 1223.86 48.77 1225.65 36.09 1238.42 35.05" stroke="#037b0b" stroke-width="2.13" stroke-dasharray="4, 4"></path><path d="M784 562.79L796.46 559.85 802.07 571.36 814.53 568.42 820.13 579.94 832.6 577 838.2 588.51" stroke="#e73635" stroke-width="2.93" stroke-dasharray="2, 2"></path><path d="M700.17 106.65L692.11 116.6 680.63 110.92 672.57 120.87 661.09 115.18 653.03 125.13 641.55 119.45" stroke="#037b0b" stroke-width="2.85" stroke-dasharray="2, 2"></path><rect width="319.96" height="319.96" clip-path="url(&quot;#SvgjsClipPath1051&quot;)" x="-15.56" y="376.23" fill="url(&quot;#SvgjsPattern1052&quot;)" transform="rotate(17.94, 144.42, 536.21)"></rect><rect width="152.88" height="152.88" clip-path="url(&quot;#SvgjsClipPath1053&quot;)" x="378.25" y="287.68" fill="url(&quot;#SvgjsPattern1054&quot;)" transform="rotate(75, 454.69, 364.12)"></rect><path d="M1052.85 236.99L1061.79 227.81 1072.7 234.51 1081.63 225.34 1092.55 232.04 1101.48 222.86 1112.39 229.56M1053.84 244.93L1062.78 235.75 1073.69 242.45 1082.62 233.28 1093.54 239.98 1102.47 230.8 1113.38 237.5M1054.83 252.87L1063.77 243.69 1074.68 250.39 1083.61 241.22 1094.53 247.92 1103.46 238.74 1114.37 245.44" stroke="#e73635" stroke-width="1.46" stroke-dasharray="4, 4"></path></g><defs><mask id="SvgjsMask1048"><rect width="1440" height="560" fill="#ffffff"></rect></mask><pattern x="0" y="0" width="214.28" height="9.74" patternUnits="userSpaceOnUse" id="SvgjsPattern1050"><rect width="214.28" height="4.87" x="0" y="0" fill="#d3b714"></rect><rect width="214.28" height="4.87" x="0" y="4.87" fill="rgba(0, 0, 0, 0)"></rect></pattern><clipPath id="SvgjsClipPath1049"><circle r="53.57" cx="412.64" cy="273.71"></circle></clipPath><pattern x="0" y="0" width="8.42" height="8.42" patternUnits="userSpaceOnUse" id="SvgjsPattern1052"><path d="M0 8.42L4.21 0L8.42 8.42" stroke="#d3b714" fill="none"></path></pattern><clipPath id="SvgjsClipPath1051"><circle r="79.99" cx="144.42" cy="536.21"></circle></clipPath><pattern x="0" y="0" width="12.74" height="12.74" patternUnits="userSpaceOnUse" id="SvgjsPattern1054"><path d="M0 12.74L6.37 0L12.74 12.74" stroke="#e73635" fill="none"></path></pattern><clipPath id="SvgjsClipPath1053"><circle r="38.22" cx="454.69" cy="364.12"></circle></clipPath></defs></svg>