<svg xmlns="http://www.w3.org/2000/svg" xmlns:xlink="http://www.w3.org/1999/xlink" id="BG" viewBox="0 0 248.66 242"><defs><style>      .cls-1 {        fill: none;      }      .cls-2 {        clip-path: url(#clippath);      }      .cls-3 {        fill: #fff;      }      .cls-4 {        fill: #caff00;      }      .cls-5 {        fill: #c3ff00;      }    </style><clipPath id="clippath"><path class="cls-1" d="m152.27,127.51c-6.54-2.41-12.39-6.01-17.41-10.72-4.86-4.55-8.74-9.95-11.55-16.03-2.81-6.09-4.39-12.54-4.71-19.19-.32-6.87.73-13.67,3.14-20.2s6.01-12.39,10.72-17.41c4.55-4.86,9.95-8.74,16.03-11.55,6.09-2.81,12.54-4.39,19.19-4.71,6.87-.32,13.67.73,20.2,3.14s12.39,6.01,17.41,10.72c4.86,4.55,8.74,9.95,11.55,16.03,2.81,6.09,4.39,12.54,4.71,19.19.32,6.87-.73,13.67-3.14,20.2s-6.01,12.39-10.72,17.41c-4.55,4.86-9.95,8.74-16.03,11.55-6.09,2.81-12.54,4.39-19.19,4.71-6.87.32-13.67-.73-20.2-3.14Z"></path></clipPath></defs><g><path class="cls-4" d="m144.17,149.48c-9.49-3.5-18.02-8.75-25.33-15.61-7.07-6.63-12.72-14.47-16.8-23.3-4.08-8.84-6.38-18.23-6.83-27.9-.47-10.02,1.06-19.91,4.56-29.4s8.75-18.02,15.61-25.33c6.63-7.07,14.47-12.72,23.3-16.8,8.84-4.08,18.23-6.38,27.9-6.83,10.02-.47,19.91,1.06,29.4,4.56s18.02,8.75,25.33,15.61c7.07,6.63,12.72,14.47,16.8,23.3,4.08,8.84,6.38,18.23,6.83,27.9.47,10.02-1.06,19.91-4.56,29.4s-8.75,18.02-15.61,25.33c-6.63,7.07-14.47,12.72-23.3,16.8-8.84,4.08-18.23,6.38-27.9,6.83-10.02.47-19.91-1.06-29.4-4.56Z"></path><g><path d="m135.05,23.04l1.86,3.15,1.55-5.16.75-.44-1.19,3.96,4.77,1.82-.72.43-4.23-1.62-.51,1.7,1.18,2.01-.56.33-3.45-5.86.56-.33Z"></path><path d="m146.48,17.33l.22.51-3.72,1.59.96,2.26,3.49-1.49.22.51-3.49,1.49,1.05,2.47,3.77-1.6.22.51-4.36,1.86-2.66-6.26,4.32-1.84Z"></path><path d="m154.31,14.89l.15.53-3.89,1.11.68,2.36,3.64-1.04.15.53-3.64,1.04.74,2.58,3.94-1.13.15.53-4.56,1.31-1.87-6.54,4.51-1.29Z"></path><path d="m160.73,13.7c.3-.05.58-.05.84,0,.26.05.49.14.69.28.2.14.37.32.5.55.13.22.22.49.26.79s.04.58-.02.83c-.06.25-.16.48-.31.67-.15.19-.34.35-.57.47-.23.12-.5.21-.8.25l-2.34.36.44,2.88-.64.1-1.02-6.72,2.98-.45Zm.36,3.32c.45-.07.79-.24,1.03-.5.24-.27.33-.63.26-1.1-.07-.46-.26-.79-.57-.97-.31-.18-.69-.24-1.13-.17l-2.2.34.42,2.75,2.2-.34Z"></path><path d="m166.79,13.13l.36,6.79-.65.03-.36-6.79.65-.03Z"></path><path d="m171.35,13.03l3.68,5.93h.02s.28-5.74.28-5.74l.65.03-.33,6.79-.72-.03-3.68-5.93h-.02s-.28,5.74-.28,5.74l-.65-.03.33-6.79.72.03Z"></path><path d="m183.91,21.41l.15-1.23h-.02c-.16.21-.34.39-.53.53-.2.14-.41.24-.63.31-.22.07-.45.11-.69.11-.24,0-.48-.02-.72-.06-.52-.1-.96-.29-1.32-.55-.36-.27-.64-.58-.84-.95-.2-.37-.33-.77-.37-1.22-.05-.44-.03-.89.06-1.36.09-.46.24-.89.45-1.28.21-.39.48-.72.8-.99.32-.27.7-.46,1.14-.58.43-.11.91-.12,1.43-.02.35.07.67.18.96.33.29.15.54.35.75.58.21.23.37.5.48.81.12.31.17.65.16,1.03l-.64-.12c.02-.2,0-.4-.08-.62-.07-.22-.18-.42-.34-.62-.15-.2-.35-.37-.58-.53-.24-.15-.51-.26-.83-.32-.44-.09-.84-.08-1.19.03-.35.11-.65.28-.91.52-.26.24-.47.52-.63.85-.16.33-.28.68-.35,1.05-.07.36-.09.73-.06,1.1.03.37.12.71.27,1.03.15.32.37.59.65.82.29.23.65.39,1.09.47.37.07.71.07,1.02,0,.31-.07.59-.19.83-.37.24-.18.44-.41.6-.69.16-.28.27-.6.33-.95l-2.27-.44.11-.54,2.83.55-.66,3.39-.46-.09Z"></path><path d="m194.55,17.72l-2.48,6.33-.6-.24,2.48-6.33.6.24Z"></path><path d="m202.21,21.28l-.25.49-2.12-1.06-2.8,5.58-.58-.29,2.8-5.58-2.11-1.06.25-.49,4.81,2.42Z"></path><path d="m211.51,27.62c.22.17.41.37.56.58.15.21.26.43.32.66.06.23.06.47,0,.71-.05.25-.17.49-.36.73-.27.34-.59.56-.96.67-.37.11-.76.07-1.15-.14h-.01c.15.18.26.34.32.5.06.16.09.32.08.48-.01.16-.05.32-.13.49-.08.16-.17.33-.29.49-.07.09-.15.21-.25.34-.1.13-.19.27-.28.42-.09.14-.16.29-.22.43-.06.14-.09.27-.08.38l-.56-.44c0-.07.03-.15.07-.24.04-.09.09-.17.14-.25.05-.08.11-.16.16-.24.05-.08.1-.15.14-.21.14-.2.27-.4.4-.6.13-.2.21-.41.25-.61.04-.2.03-.41-.03-.6-.07-.2-.22-.39-.47-.57l-1.93-1.52-1.87,2.37-.51-.4,4.22-5.33,2.44,1.93Zm-2.04,2.5c.15.12.32.21.5.28.18.06.35.09.53.08.18,0,.34-.05.51-.13.16-.08.31-.2.44-.36.26-.33.37-.66.33-1-.04-.34-.25-.66-.64-.97l-1.9-1.5-1.66,2.1,1.9,1.5Z"></path><path d="m219.17,34.81l-.4.38-2.82-2.9-1.76,1.71,2.64,2.72-.4.38-2.64-2.72-1.93,1.87,2.85,2.94-.4.38-3.3-3.4,4.88-4.74,3.27,3.37Z"></path><path d="m223.08,39.62l-3.81,6.23-.42-.55,1.18-1.94-1.87-2.47-2.18.62-.41-.55,7.07-1.93.44.58Zm-2.73,3.23l1.98-3.15-3.6,1.02,1.62,2.13Z"></path><path d="m226.72,44.98l-5.4,3.13,1.91,3.3-.48.28-2.23-3.86,5.88-3.41.32.56Z"></path><path d="m236.13,75.61l-3.66.1,3.76,3.85.02.88-2.89-2.96-3.9,3.29-.02-.84,3.47-2.92-1.24-1.27-2.33.06-.02-.65,6.8-.18.02.65Z"></path><path d="m235.62,88.36l-.55-.05.4-4.03-2.44-.24-.38,3.77-.55-.05.38-3.77-2.67-.27-.41,4.07-.55-.05.47-4.72,6.77.67-.47,4.67Z"></path><path d="m233.99,96.39l-.54-.12.9-3.95-2.4-.55-.84,3.7-.54-.12.84-3.7-2.62-.6-.91,3.99-.54-.12,1.05-4.62,6.63,1.51-1.04,4.58Z"></path><path d="m231.94,102.6c-.1.29-.24.53-.41.73-.17.2-.36.36-.58.47-.22.11-.46.17-.72.17-.26,0-.53-.04-.82-.15-.29-.1-.53-.24-.72-.42-.19-.17-.34-.37-.44-.6-.1-.22-.14-.47-.14-.73,0-.26.06-.54.16-.82l.82-2.23-2.74-1,.22-.61,6.38,2.34-1.04,2.83Zm-3.08-1.28c-.16.42-.17.81-.05,1.15.12.34.4.59.84.75.44.16.82.15,1.13-.03.31-.18.54-.49.7-.91l.77-2.09-2.61-.96-.77,2.09Z"></path><path d="m229.52,108.18l-6.13-2.95.28-.58,6.13,2.95-.28.58Z"></path><path d="m227.4,112.23l-6.98.35v.02s4.88,3.02,4.88,3.02l-.34.55-5.78-3.57.38-.62,6.98-.35v-.02s-4.88-3.02-4.88-3.02l.34-.55,5.78,3.57-.38.62Z"></path><path d="m213.97,119.15l1,.73h.01c-.11-.26-.18-.5-.2-.74-.03-.24-.02-.48.03-.7.05-.23.12-.45.23-.66.11-.21.24-.41.4-.6.34-.41.72-.7,1.13-.89.41-.18.82-.27,1.24-.27.42,0,.83.09,1.25.26.41.17.8.41,1.16.71.36.3.66.64.9,1.02.24.38.4.77.48,1.19.08.41.06.84-.05,1.27-.11.43-.34.85-.68,1.26-.23.27-.48.5-.76.68-.28.18-.57.31-.87.37-.31.07-.62.08-.94.03-.32-.05-.65-.17-.98-.36l.42-.5c.16.11.36.19.58.23.22.04.46.05.71,0,.25-.04.49-.12.74-.25.25-.13.48-.32.68-.57.29-.35.47-.7.55-1.05.08-.36.07-.71,0-1.05-.08-.34-.23-.66-.44-.97-.21-.3-.46-.58-.74-.82-.28-.24-.59-.43-.93-.59-.34-.16-.68-.25-1.03-.27-.35-.02-.69.03-1.03.17-.34.14-.65.38-.94.72-.24.29-.41.58-.5.89-.1.31-.12.61-.08.91.04.3.14.58.31.86.17.27.39.52.67.75l1.49-1.77.42.36-1.86,2.21-2.65-2.22.3-.36Z"></path><path d="m212.07,130.25l-4.35-5.22.5-.41,4.35,5.22-.5.41Z"></path><path d="m205.25,135.24l-.31-.46,1.95-1.34-3.54-5.15.53-.37,3.54,5.15,1.95-1.34.31.46-4.43,3.05Z"></path><path d="m195.22,140.35c-.26.11-.52.18-.77.21-.26.03-.5.02-.73-.04-.23-.06-.44-.17-.63-.34-.19-.16-.34-.39-.46-.67-.17-.4-.21-.79-.13-1.16.08-.38.31-.69.68-.95v-.02c-.22.06-.42.07-.58.05-.17-.02-.32-.08-.46-.16-.14-.09-.26-.2-.36-.35-.11-.14-.2-.31-.29-.49-.05-.1-.11-.23-.18-.38-.07-.15-.15-.3-.23-.45-.08-.15-.17-.28-.27-.4-.1-.12-.19-.21-.29-.26l.66-.28c.06.04.12.1.17.18.06.08.11.16.15.24.05.09.09.17.13.26.04.09.08.16.11.22.11.22.22.43.34.64.12.21.26.38.41.52.16.14.34.22.54.26.21.04.45,0,.72-.14l2.26-.95-1.17-2.78.6-.25,2.64,6.27-2.87,1.21Zm-1.21-2.99c-.18.08-.34.18-.48.3-.14.12-.25.27-.33.42-.08.16-.12.33-.13.51-.01.18.03.37.11.56.16.39.4.64.72.77.32.13.7.1,1.16-.1l2.23-.94-1.04-2.47-2.23.94Z"></path><path d="m185.24,143.59l-.15-.53,3.9-1.08-.65-2.37-3.65,1.01-.15-.53,3.65-1.01-.71-2.59-3.95,1.09-.15-.53,4.57-1.26,1.81,6.55-4.53,1.25Z"></path><path d="m179.1,144.68l-3.6-6.36.69-.1,1.12,1.98,3.06-.44.51-2.21.68-.1-1.75,7.12-.72.1Zm-1.5-3.96l1.79,3.26.86-3.64-2.65.38Z"></path><path d="m172.66,145.25l-.12-6.25-3.81.08v-.55s4.44-.09,4.44-.09l.13,6.8h-.65Z"></path><path d="m136.93,136.43l1.92-3.11-5.28,1.04-.75-.46,4.06-.8-.62-5.07.71.44.55,4.5,1.75-.35,1.22-1.99.55.34-3.57,5.79-.55-.34Z"></path><path d="m126.54,128.99l.35-.43,3.14,2.55,1.55-1.91-2.94-2.39.35-.43,2.94,2.39,1.69-2.09-3.18-2.58.35-.43,3.68,2.99-4.28,5.28-3.65-2.96Z"></path><path d="m120.72,123.23l.4-.38,2.81,2.91,1.77-1.71-2.63-2.73.4-.38,2.63,2.73,1.93-1.86-2.84-2.95.4-.38,3.29,3.41-4.89,4.72-3.26-3.38Z"></path><path d="m116.65,118.14c-.18-.24-.31-.49-.39-.74s-.11-.5-.08-.74.11-.48.25-.7c.14-.22.33-.42.57-.61.24-.18.49-.31.74-.38.25-.07.5-.08.74-.04.24.04.47.14.69.28.22.15.42.34.6.59l1.42,1.9,2.33-1.75.39.52-5.44,4.07-1.81-2.42Zm2.75-1.88c-.27-.36-.58-.58-.93-.67-.35-.09-.71.01-1.09.29-.38.28-.57.6-.59.96-.02.36.11.72.38,1.08l1.34,1.78,2.23-1.67-1.34-1.78Z"></path><path d="m113.29,113.06l5.82-3.52.34.55-5.82,3.52-.34-.55Z"></path><path d="m111.05,109.06l3.52-6.03v-.02s-5.21,2.44-5.21,2.44l-.28-.59,6.15-2.89.31.66-3.52,6.03v.02s5.21-2.44,5.21-2.44l.28.59-6.15,2.89-.31-.66Z"></path><path d="m112.59,94.04l-1.16.44v.02c.27.04.51.11.73.22.22.11.41.25.57.41.17.16.31.35.42.55.12.21.21.43.28.67.15.51.2.99.13,1.43-.07.44-.22.84-.45,1.19-.23.35-.53.65-.9.9-.37.25-.78.45-1.23.58-.45.14-.9.2-1.34.2-.45,0-.86-.09-1.25-.25-.39-.16-.74-.4-1.04-.73-.3-.33-.53-.75-.69-1.26-.1-.34-.16-.68-.16-1.01,0-.33.05-.64.16-.94.11-.29.27-.56.49-.81.22-.25.5-.45.84-.62l.19.62c-.18.08-.35.2-.51.36-.16.16-.29.36-.39.59-.1.23-.17.48-.19.76-.02.28.01.57.1.88.13.43.33.78.58,1.04.26.26.55.45.88.56.33.12.68.17,1.05.16.37,0,.73-.07,1.09-.18.35-.11.69-.26,1-.46.31-.2.58-.44.79-.72.21-.28.35-.6.42-.96.07-.36.04-.76-.09-1.19-.11-.36-.27-.66-.47-.91-.2-.25-.44-.43-.71-.56-.27-.13-.57-.2-.89-.21-.32,0-.65.04-1,.15l.67,2.21-.53.16-.84-2.76,3.31-1,.14.45Z"></path><path d="m104.35,86.37l6.76-.76.07.64-6.76.76-.07-.64Z"></path><path d="m103.92,77.93h.55s.05,2.36.05,2.36l6.25-.13v.65s-6.23.13-6.23.13l.05,2.36h-.55s-.11-5.37-.11-5.37Z"></path><path d="m105.12,66.76c.05-.27.13-.53.24-.76.11-.23.26-.43.43-.59s.38-.27.62-.34c.24-.07.51-.08.81-.02.42.08.77.25,1.05.53.27.28.41.64.42,1.08h.02c.07-.21.16-.38.27-.51.11-.13.24-.23.39-.29.15-.07.31-.11.49-.11.18,0,.37,0,.57.02.11.01.25.03.42.06.16.02.33.04.5.05.17.01.33,0,.48,0,.15-.01.28-.05.37-.1l-.13.7c-.07.03-.15.04-.25.05-.09,0-.19,0-.29,0-.1,0-.2-.02-.29-.03-.1-.01-.18-.02-.25-.03-.24-.03-.48-.05-.72-.07-.24-.01-.46,0-.66.07-.2.06-.37.16-.52.31-.14.15-.24.38-.28.68l-.44,2.42,2.97.53-.11.64-6.69-1.2.55-3.06Zm3.17.62c.03-.19.04-.38.01-.57-.03-.19-.09-.35-.18-.51-.09-.15-.21-.28-.35-.39-.15-.11-.32-.18-.53-.22-.41-.07-.76-.01-1.04.18-.28.19-.46.54-.55,1.02l-.43,2.38,2.63.47.43-2.38Z"></path><path d="m107.85,56.62l.53.17-1.23,3.86,2.34.75,1.15-3.61.53.17-1.15,3.61,2.56.82,1.24-3.9.53.17-1.44,4.52-6.48-2.07,1.43-4.47Z"></path><path d="m110.29,50.88l7.29.45-.29.63-2.27-.14-1.31,2.81,1.57,1.63-.29.62-5.01-5.35.31-.66Zm4.14.91l-3.71-.28,2.59,2.7,1.13-2.43Z"></path><path d="m113.33,45.17l5.3,3.31,2.02-3.23.47.29-2.36,3.78-5.76-3.61.34-.55Z"></path></g><path d="m187.24,32.59c6.3,2.32,11.95,5.8,16.78,10.33,4.68,4.39,8.42,9.59,11.13,15.45,2.71,5.87,4.23,12.09,4.54,18.5.31,6.62-.71,13.17-3.03,19.47s-5.8,11.95-10.33,16.78c-4.39,4.68-9.59,8.42-15.45,11.13-5.87,2.71-12.09,4.23-18.5,4.54-6.62.31-13.17-.71-19.47-3.03s-11.94-5.8-16.78-10.33c-4.68-4.39-8.43-9.59-11.13-15.45-2.71-5.87-4.23-12.09-4.54-18.5-.31-6.62.71-13.17,3.03-19.47s5.8-11.95,10.33-16.78c4.39-4.68,9.59-8.42,15.45-11.13,5.87-2.71,12.09-4.23,18.5-4.54,6.62-.31,13.17.71,19.47,3.03m.65-1.76c-6.54-2.41-13.33-3.47-20.2-3.14-6.65.31-13.11,1.9-19.19,4.71-6.09,2.81-11.48,6.7-16.03,11.55-4.7,5.02-8.31,10.88-10.72,17.41s-3.47,13.33-3.14,20.2c.31,6.65,1.9,13.11,4.71,19.19,2.81,6.09,6.7,11.48,11.55,16.03,5.02,4.7,10.88,8.31,17.41,10.72s13.33,3.47,20.2,3.14c6.65-.31,13.11-1.9,19.19-4.71,6.09-2.81,11.48-6.7,16.03-11.55,4.7-5.02,8.31-10.88,10.72-17.41s3.47-13.33,3.14-20.2c-.31-6.65-1.9-13.11-4.71-19.19-2.81-6.09-6.7-11.48-11.55-16.03-5.02-4.7-10.88-8.31-17.41-10.72h0Z"></path><g class="cls-2"><g><path d="m222.09,174.82l-147.06-54.18L129.22-26.43l147.06,54.18-54.18,147.06Zm-146.86-54.28l146.77,54.08,54.08-146.77L129.31-26.23l-54.08,146.77Z"></path><rect x="153.43" y="56.01" width=".16" height="156.57" transform="translate(-25.58 231.91) rotate(-69.77)"></rect><rect x="158.35" y="42.66" width=".16" height="156.57" transform="translate(-9.83 227.79) rotate(-69.77)"></rect><rect x="163.27" y="29.3" width=".16" height="156.57" transform="translate(5.93 223.67) rotate(-69.77)"></rect><rect x="168.2" y="15.95" width=".16" height="156.57" transform="translate(21.68 219.55) rotate(-69.77)"></rect><rect x="173.12" y="2.59" width=".16" height="156.57" transform="translate(37.43 215.43) rotate(-69.77)"></rect><rect x="178.04" y="-10.77" width=".16" height="156.57" transform="translate(53.18 211.31) rotate(-69.77)"></rect><rect x="182.96" y="-24.12" width=".16" height="156.57" transform="translate(68.93 207.19) rotate(-69.77)"></rect><rect x="187.88" y="-37.48" width=".16" height="156.57" transform="translate(84.69 203.07) rotate(-69.77)"></rect><rect x="192.8" y="-50.83" width=".16" height="156.57" transform="translate(100.44 198.95) rotate(-69.77)"></rect><rect x="197.72" y="-64.19" width=".16" height="156.57" transform="translate(116.19 194.82) rotate(-69.77)"></rect><rect x="157.47" y="96.26" width="156.57" height=".16" transform="translate(63.85 284.25) rotate(-69.77)"></rect><rect x="144.12" y="91.34" width="156.57" height=".16" transform="translate(59.73 268.5) rotate(-69.77)"></rect><rect x="130.76" y="86.42" width="156.57" height=".16" transform="translate(55.61 252.75) rotate(-69.77)"></rect><rect x="117.4" y="81.5" width="156.57" height=".16" transform="translate(51.49 237) rotate(-69.77)"></rect><rect x="104.05" y="76.58" width="156.57" height=".16" transform="translate(47.37 221.24) rotate(-69.77)"></rect><rect x="90.69" y="71.66" width="156.57" height=".16" transform="translate(43.24 205.49) rotate(-69.77)"></rect><rect x="77.34" y="66.74" width="156.57" height=".16" transform="translate(39.12 189.74) rotate(-69.77)"></rect><rect x="63.98" y="61.82" width="156.57" height=".16" transform="translate(35 173.99) rotate(-69.77)"></rect><rect x="50.62" y="56.9" width="156.57" height=".16" transform="translate(30.88 158.24) rotate(-69.77)"></rect><rect x="37.27" y="51.97" width="156.57" height=".16" transform="translate(26.76 142.48) rotate(-69.77)"></rect></g></g><g><path class="cls-3" d="m160.49,105.43c-1.54-.57-2.92-1.45-4.1-2.64l-.02-.02h-.02c-.42-.1-.81-.22-1.18-.35-1.41-.52-2.44-1.33-3.16-2.48-1.57-2.51-2.04-5.92-2.25-8.27-.26-2.86-.23-5.74-.16-8.68.05-2.16.16-4.47.65-6.72v-.03s-.01-.03-.01-.03c-.24-.35-.39-.73-.45-1.12l-1.89-12.14c-.1-.62-.19-1.23-.29-1.85-.21-1.34-.42-2.73-.64-4.09-.13-.81-.3-1.76-.52-2.71-.05-.22-.11-.45-.17-.67,0-.03-.03-.09-.04-.16-.02-.07-.04-.15-.06-.2-.12-.36-.26-.72-.41-1.1-.65-1.56-.02-3.26,1.49-4.04.67-.35,1.52-.38,2.32-.08s1.43.87,1.72,1.57c1.01,2.43,1.52,4.97,1.98,8.05v.04s.04.02.04.02c.96.51,1.6,1.69,1.64,3,.02.6.04,1.2.06,1.8.01.3.02.6.04.9l.02.52c.05.99.1,2.03.17,3.17.11,1.75.24,3.57.4,5.42v.03s.03.02.03.02c.37.28.66.64.87,1.06.69,1.39.91,2.86,1.02,3.99l.02.24.16-.27v-.03c-.05-.35-.1-.7-.15-1.05-.09-.64-.18-1.3-.25-1.96-.14-1.21-.21-2.27-.21-3.23v-.03s-.05-.05-.05-.05c-.01-.01-.02-.02-.04-.03-1.22-1.27-1.35-3.4-.3-4.95.49-.72,1.26-1.26,2.17-1.5h.01s.01-.01.01-.01c.4-.28.88-.49,1.41-.64.51-.14,1.03-.12,1.52.06,1.07.39,1.9,1.52,2.02,2.73l.02.19.12-.14c.34-.41.76-.74,1.29-1.02.03-.01.14-.05.24-.08.14-.05.29-.1.41-.14h.03s.03-.08.03-.08c.36-1,1.33-1.82,2.32-1.94.72-.09,1.42-.01,2.07.23,1.49.55,2.54,1.92,2.73,3.57.15,1.25.02,2.58-.11,3.86-.04.43-.09.88-.12,1.32-.11,1.59-.24,3.22-.38,4.85v.09s.08,0,.08,0c.11,0,.22,0,.34,0h.06s.01-.06.01-.06c.02-.11.04-.2.05-.25l1.3-4.73v-.02c-.14-.39-.2-.79-.18-1.19.02-.47.08-.95.18-1.44.18-1.21.42-2.25.72-3.19.56-1.71,2.22-2.87,3.88-2.7h.02s.02,0,.02,0c.67-.21,1.34-.19,1.97.04.23.09.46.2.68.35,1.06.69,1.54,2.27,1.08,3.52-.09.25-.18.52-.26.78v.05s.02.03.02.03c.84.76,1.17,2.08.84,3.37-.07.26-.13.52-.2.79l-.03.14v.07c-.11.53-.22,1.07-.3,1.62-.14.98-.18,1.96-.2,2.87v.26s.14-.22.14-.22c.26-.39.5-.72.73-1.03,1.36-1.84,2.96-3.63,4.75-5.3,3.35-3.13,7.37-5.65,11.63-7.3.79-.31,1.63-.33,2.36-.06.61.22,1.12.65,1.48,1.22.79,1.26.55,2.74-.63,3.96-1.14,1.18-2.32,2.4-3.48,3.62-.17.18-.71.75-.71.75-.08.09-.35.37-.36.38l-.3.33c-.61.66-1.16,1.27-1.69,1.86-1.95,2.19-3.62,4.2-5.09,6.17l-.02.03v.03c.1.53.04,1.04-.17,1.47-1.3,2.64-2.54,5.35-3.71,8.06v.03s0,.03,0,.03c.15.41.18.83.09,1.25-.43,1.95-1.19,3.86-2.39,6.02v.02s0,.02,0,.02c-.03.57-.22,1.14-.54,1.65-.71,1.13-1.63,2.14-2.73,2.99-1.02.97-2.11,1.55-3.35,1.77-.38.07-.78.06-1.16-.03h-.03s-.03,0-.03,0c-1.32.69-2.87,1.43-4.46,1.57-1.65.14-3.31-.11-4.92-.35-.37-.06-.74-.11-1.11-.16-.35-.05-.7-.09-1.06-.14-1.72-.22-3.5-.45-5.15-1.02-.08-.03-.16-.06-.24-.09Z"></path><path d="m202.21,64.06c.59.22,1.09.63,1.44,1.18.77,1.23.54,2.67-.62,3.87-1.14,1.18-2.33,2.41-3.48,3.62-.17.18-.34.36-.51.54l-.06.06-.15.15c-.08.09-.35.37-.36.38l.1.09-.1-.09c-.1.11-.2.22-.3.33-.61.65-1.16,1.26-1.69,1.86-1.95,2.19-3.62,4.21-5.1,6.17l-.04.05v.07c.1.52.04,1.01-.16,1.42-1.3,2.64-2.54,5.35-3.71,8.07l-.02.06.02.06c.15.4.17.8.09,1.21-.43,1.94-1.19,3.85-2.38,6l-.02.03v.04c-.03.56-.21,1.11-.53,1.61-.71,1.12-1.62,2.12-2.71,2.97h0s0,.01,0,.01c-1,.95-2.08,1.52-3.3,1.75-.37.07-.75.06-1.13-.02h-.06s-.05.01-.05.01c-1.38.72-2.85,1.43-4.43,1.56-1.64.14-3.3-.11-4.91-.35-.36-.05-.74-.11-1.11-.16-.35-.05-.7-.09-1.06-.14-1.72-.22-3.49-.45-5.13-1.02-.08-.03-.16-.06-.24-.08-1.53-.56-2.9-1.44-4.07-2.62l-.03-.03h-.04c-.42-.11-.81-.22-1.17-.36-1.39-.51-2.41-1.31-3.12-2.45-.75-1.19-1.8-3.35-2.24-8.23-.26-2.86-.22-5.73-.16-8.67.05-2.16.16-4.46.65-6.71v-.07s-.02-.06-.02-.06c-.23-.34-.38-.71-.44-1.09l-.94-6.07-.94-6.07c-.1-.62-.19-1.23-.29-1.85-.21-1.34-.42-2.73-.64-4.1-.13-.81-.3-1.76-.52-2.71-.05-.23-.11-.45-.17-.67,0-.03-.03-.09-.04-.16-.02-.07-.04-.15-.06-.2h0s0,0,0,0c-.12-.36-.26-.72-.42-1.1-.63-1.53-.02-3.18,1.45-3.94.65-.34,1.48-.37,2.25-.08.78.29,1.39.84,1.67,1.53,1.01,2.42,1.52,4.96,1.98,8.04v.08s.08.04.08.04c.93.5,1.56,1.65,1.6,2.93.02.66.04,1.25.06,1.8.01.3.02.6.04.9v.08s.02.44.02.44c.05.99.1,2.03.17,3.17.11,1.75.24,3.57.4,5.42v.07s.06.04.06.04c.36.28.65.62.85,1.04.69,1.38.9,2.84,1.01,3.96l.05.48.24-.42.02-.03h0s.03-.06.03-.06v-.05c-.05-.35-.1-.7-.15-1.06-.09-.64-.18-1.3-.25-1.95-.14-1.21-.21-2.26-.21-3.22v-.07s-.05-.05-.05-.05c-.01-.01-.02-.02-.03-.03-.01-.01-.02-.02-.03-.03-1.18-1.22-1.31-3.35-.29-4.85.48-.71,1.23-1.23,2.12-1.47h.03s.02-.02.02-.02c.4-.27.86-.49,1.39-.63.5-.14.99-.12,1.47.06,1.04.38,1.85,1.48,1.97,2.67l.04.37.24-.29c.33-.4.75-.73,1.27-1,.03-.01.14-.05.23-.08.14-.05.3-.1.42-.15l.06-.03.02-.06h0s0-.04,0-.04c.35-.98,1.3-1.77,2.26-1.89.71-.09,1.39-.01,2.03.22,1.48.55,2.49,1.86,2.68,3.5.15,1.24.02,2.56-.11,3.84-.04.43-.09.88-.12,1.32-.11,1.59-.24,3.22-.38,4.84v.17s.16,0,.16,0c.11,0,.22,0,.34,0h.13s.02-.13.02-.13c.02-.11.04-.2.05-.25l.02-.08,1.27-4.63v-.05s0-.05,0-.05c-.13-.38-.19-.77-.17-1.16.02-.47.08-.94.18-1.42h0s0,0,0,0c.18-1.2.42-2.24.72-3.17.54-1.67,2.18-2.81,3.8-2.65h.03s.03,0,.03,0c.66-.2,1.3-.19,1.92.04.23.08.45.2.67.34,1.03.67,1.5,2.21,1.05,3.43-.09.26-.18.52-.27.79l-.03.1.07.07c.82.74,1.14,2.03.81,3.29-.07.26-.13.53-.2.79l-.03.1v.02s0,0,0,0h0s0,0,0,0v.06c-.11.53-.22,1.07-.3,1.62-.14.99-.18,1.97-.2,2.88v.53s.29-.44.29-.44c.26-.38.5-.72.72-1.02,1.36-1.84,2.95-3.62,4.74-5.29,3.34-3.12,7.35-5.64,11.6-7.28.77-.3,1.59-.32,2.3-.06m.05-.15c-.75-.27-1.6-.25-2.41.06-4.28,1.66-8.3,4.18-11.65,7.31-1.74,1.62-3.35,3.4-4.76,5.31-.25.34-.49.68-.73,1.03.02-.96.07-1.91.2-2.86.08-.54.18-1.08.28-1.61,0-.02,0-.04.01-.06,0,0,0-.02,0-.03.07-.3.15-.6.22-.89.32-1.22.06-2.62-.86-3.45.08-.26.17-.52.26-.78.46-1.24.03-2.88-1.11-3.62-.23-.15-.46-.27-.7-.35-.67-.25-1.35-.25-2.02-.04-1.71-.17-3.4,1-3.97,2.75-.33,1.02-.56,2.11-.73,3.2-.1.48-.17.97-.19,1.45-.02.41.05.83.18,1.22-.43,1.57-.86,3.14-1.29,4.7-.02.06-.03.15-.05.26-.11,0-.22,0-.34,0,.14-1.61.26-3.23.38-4.85.12-1.69.42-3.5.22-5.19-.21-1.74-1.3-3.08-2.78-3.63-.64-.24-1.35-.32-2.1-.23-1.06.13-2.03,1-2.38,2,0,.01,0,.02-.01.03-.22.09-.59.2-.66.23-.5.26-.95.6-1.32,1.04-.12-1.21-.95-2.38-2.07-2.8-.48-.18-1.01-.22-1.57-.06-.55.15-1.03.37-1.44.65-.88.24-1.69.77-2.21,1.54-1.02,1.5-.98,3.71.31,5.05.02.02.05.04.07.07,0,1.08.09,2.16.21,3.24.12,1.01.27,2.01.4,3.01,0,.01-.01.02-.02.04-.14-1.38-.39-2.74-1.03-4.01-.22-.45-.53-.81-.9-1.09-.15-1.8-.29-3.61-.4-5.42-.07-1.06-.12-2.11-.17-3.17,0-.15-.02-.51-.02-.52-.01-.3-.02-.6-.04-.9-.02-.6-.04-1.2-.06-1.8-.04-1.23-.61-2.5-1.68-3.07-.41-2.76-.92-5.51-1.99-8.07-.31-.76-.99-1.33-1.76-1.61-.77-.29-1.65-.29-2.38.09-1.55.8-2.2,2.53-1.53,4.14.15.36.29.72.41,1.09.02.09.08.29.1.35.06.22.12.44.17.66.21.89.37,1.8.52,2.7.32,1.98.62,3.96.93,5.94.63,4.05,1.26,8.09,1.89,12.14.06.41.23.8.46,1.15-.48,2.2-.6,4.47-.65,6.74-.06,2.9-.1,5.8.16,8.69.25,2.77.77,5.92,2.26,8.3.79,1.26,1.9,2.03,3.2,2.51.38.14.77.25,1.18.35,1.15,1.15,2.53,2.07,4.13,2.65.08.03.16.06.24.09,1.99.68,4.14.88,6.22,1.16,2,.28,4.02.69,6.05.51,1.58-.14,3.07-.84,4.49-1.58.38.09.79.1,1.2.03,1.36-.25,2.46-.91,3.38-1.79,1.08-.84,2.02-1.85,2.75-3.01.33-.53.52-1.11.55-1.69,1.06-1.91,1.91-3.86,2.4-6.04.1-.45.06-.89-.09-1.29,1.17-2.72,2.4-5.4,3.71-8.06.23-.47.28-1,.19-1.52,1.6-2.13,3.31-4.17,5.09-6.16.56-.62,1.12-1.24,1.69-1.86.1-.11.2-.22.3-.32,0,0,0,0,0,0,0,0,0,0,0,0,0,0,0,0,0,0,0,0,.27-.29.36-.38.08-.08.18-.19.2-.21.17-.18.34-.36.51-.54,1.15-1.21,2.32-2.42,3.48-3.62,1.1-1.13,1.53-2.64.64-4.06-.38-.61-.92-1.03-1.52-1.25h0Z"></path></g><path d="m205.57,64.72c-2.32-3.4-7.14-1.53-9.97.05-4.38,2.45-8.08,6.11-11.16,10.03.63-3.61,1.15-8.28-1.5-11.27-2.38-2.69-7.25-2.07-9.01,1-1.85-3.48-7.09-3.6-9.3-.4-1.89-2.57-5.74-2.64-7.87-.34-.93-4.27-1.98-8.62-3.78-12.62-.81-1.8-2.24-4.83-4.64-4.74-3.42.12-3.62,3.81-3.38,6.39.38,4.17,1.46,8.27,2.27,12.37.64,3.21,1.21,6.44,1.66,9.69-.18,4.25-.32,8.51-.14,12.75.13,3.06.41,6.18,1.28,9.13.7,2.36,1.84,4.58,3.71,6.23,3.13,2.75,7.37,4.21,11.4,4.98,4.16.79,8.52.84,12.65-.12,1.85-.43,3.69-1.01,5.24-2.14,1.33-.97,2.38-2.27,3.18-3.7,1.9-3.38,2.7-7.31,3.82-10.99,1.26-4.14,2.93-8.13,5.33-11.74,1.07-1.61,2.27-3.19,3.75-4.44l.05-.05c1.78-1.69,3.7-3.27,5.27-5.17,1.11-1.34,2.26-3.23,1.13-4.9-.61-.9,1.74,2.55,0,0h0Zm-26.23-.69c2.17.06,3.04,2.43,3.31,4.24.24,1.66.04,3.29-.23,4.93-.39,2.41-.9,4.81-1.44,7.19-.55,1.57-2.53,2.04-4.01,1.71-2.03-.44-2.32-3.01-2.39-4.71.11-2.14.19-4.96.23-7.12l.2-1.71c.39-3.42,1.52-4.61,4.33-4.54.76.02-2.81-.07,0,0Zm-10.49-.02c2.24-.14,3.24.77,3.83,3.65-.02,1.48-.08,5.15-.2,8.17-.08,1.72-.05,3.49-.91,5.04-.45.81-1.15,1.62-2.08,1.87-1.39.38-2.45-.87-3.06-1.95l-.74-13.44.05-.31c.04-.29.49-2.87,3.1-3.03,2.24-.14-2.61.16,0,0h0Zm-8.3.27c1.93-.06,2.68,1.52,2.93,2.33l.72,13.13-.06,1.02c-.11,1.98-2.39,1.94-3.73,1.09-1.38-.88-2.06-2.57-2.47-4.08-.89-3.25-.94-6.79-.67-10.13l.09-.48c.02-.12.57-2.79,3.19-2.88,1.94-.06-2.62.08,0,0h0Zm38.59,7.57c-.49.45-.97.9-1.44,1.34-2.95,2.49-5.06,6.02-6.75,9.44-1.95,3.96-3.09,8.19-4.35,12.41-.95,3.18-2.04,6.82-4.83,8.89-1.4,1.03-3.12,1.51-4.79,1.87-1.83.39-3.71.57-5.58.57-3.6,0-7.25-.6-10.63-1.86-2.52-.94-5.2-2.29-6.83-4.51-1.42-1.92-2.07-4.3-2.47-6.62-.58-3.41-.65-6.9-.63-10.35.01-2.72.11-5.44.23-8.17v-.1s0-.1,0-.1c-.61-4.49-1.48-8.93-2.39-13.36-.47-2.27-.96-4.54-1.31-6.84-.23-1.49-.53-3.17-.2-4.67.15-.69.79-1.56,1.59-1.1.43.25.75.67,1.03,1.07,1.87,2.7,2.76,6.2,3.61,9.32.69,2.54,1.28,5.12,1.78,7.7-.33,3.41-.31,6.96.39,10.33.41,1.97,1.09,4.02,2.48,5.53,1.78,1.94,5.58,2.95,7.44.55,2.5,2.91,6.26,1.82,7.98-1.29,1.37,2.45,4.53,3.02,7,1.93,1.31-.57,2.08-1.67,2.49-2.99l.03-.08c.02-.06.04-.12.06-.19,3.51-5.59,8.25-11.2,14.21-14.27,1.64-.85,5.16-2.4,6.54-.37.51.74-.83,2.09-1.25,2.57-1.05,1.19-2.22,2.27-3.38,3.34-.49.45,1.99-1.83,0,0h0Z"></path></g><g><circle cx="70.63" cy="170.77" r="66.83"></circle><g><g><g><path class="cls-3" d="m13.57,148.97c.1-.27.23-.49.39-.67.16-.18.35-.32.55-.42s.42-.15.65-.16c.23,0,.45.03.68.11.35.13.62.31.82.55.2.24.31.55.32.93h.02c.1-.14.22-.25.35-.32.13-.07.27-.12.42-.14.15-.02.3-.02.46,0,.16.02.32.06.47.1.1.03.21.06.34.11.13.04.26.08.4.11.14.03.27.06.4.07.13.01.25,0,.35-.03l-.48,1.3c-.21,0-.45-.04-.72-.11-.27-.08-.52-.15-.77-.2-.33-.07-.59-.06-.78.03-.2.09-.35.3-.47.63l-.48,1.3,2.31.85-.48,1.3-5.92-2.17,1.17-3.19Zm2.51,1.45c.11-.3.13-.55.05-.74-.08-.2-.27-.35-.56-.46-.29-.11-.52-.11-.71,0-.18.1-.33.3-.44.6l-.52,1.43,1.67.61.52-1.43Z"></path><path class="cls-3" d="m18.26,139.26l1.02.56-1.6,2.92,1.18.65,1.47-2.68.94.52-1.47,2.68,1.35.74,1.64-2.98,1.02.56-2.3,4.19-5.53-3.04,2.27-4.13Z"></path><path class="cls-3" d="m21.25,134.84l5.14,3.66-.8,1.13-5.14-3.66.8-1.13Z"></path><path class="cls-3" d="m25.15,130.01l4.17,1.9h.01s-2.2-4-2.2-4l1.34-1.42,4.59,4.32-.89.95-3.25-3.06h-.01s2.2,4.2,2.2,4.2l-.73.78-4.28-1.91h-.01s3.22,3.04,3.22,3.04l-.89.95-4.59-4.32,1.34-1.42Z"></path><path class="cls-3" d="m34.29,121.7l5.69,3.59-1.15.87-1.23-.83-1.88,1.43.46,1.42-1.11.84-1.92-6.46,1.13-.86Zm2.4,3.03l-2.03-1.36h-.01s.75,2.35.75,2.35l1.3-.99Z"></path><path class="cls-3" d="m45.53,122.04c-.2.25-.44.45-.71.6-.43.23-.85.36-1.27.4-.42.04-.81-.01-1.19-.15-.37-.13-.72-.34-1.03-.62s-.58-.63-.8-1.03c-.22-.41-.37-.83-.44-1.25-.07-.42-.05-.83.04-1.22.09-.39.27-.75.52-1.08.26-.33.6-.61,1.03-.84.28-.15.58-.26.9-.32.31-.06.62-.06.93-.01.3.05.59.16.86.33.27.17.51.4.71.7l-1.17.63c-.24-.27-.51-.43-.8-.47-.29-.04-.58.01-.88.17-.27.15-.48.33-.61.54-.13.21-.21.44-.24.68-.02.24,0,.49.07.75.07.26.17.51.3.75.13.23.28.45.45.64.17.19.37.34.58.45.21.11.45.17.69.17.25,0,.51-.07.79-.22.4-.22.66-.49.77-.81.11-.32.08-.69-.09-1.1l-1.23.66-.49-.91,2.33-1.26,1.62,3-.78.42-.46-.56c-.07.4-.2.72-.41.98Z"></path><path class="cls-3" d="m49.27,113.56l2.27,5.88-1.29.5-2.27-5.88,1.29-.5Z"></path><path class="cls-3" d="m54.58,111.85l3.57,3.47h.02s-1.02-4.11-1.02-4.11l1.26-.31,1.52,6.12-1.35.33-3.56-3.46h-.02s1.02,4.1,1.02,4.1l-1.26.31-1.52-6.12,1.34-.33Z"></path><path class="cls-3" d="m63.94,110.09l.75,6.26-1.38.17-.75-6.26,1.38-.17Z"></path><path class="cls-3" d="m69.55,109.71l2.56,4.27h.02s.07-4.23.07-4.23l1.3.02-.1,6.3-1.39-.02-2.55-4.26h-.02s-.07,4.22-.07,4.22l-1.3-.02.1-6.3,1.38.02Z"></path><path class="cls-3" d="m80.47,116.87c-.32.08-.63.09-.93.04-.48-.08-.89-.23-1.24-.46s-.64-.51-.85-.84c-.21-.33-.36-.71-.43-1.12-.08-.41-.08-.85,0-1.3.08-.46.22-.88.42-1.26.2-.38.46-.69.77-.94.31-.25.67-.43,1.08-.54.41-.11.85-.12,1.33-.04.32.05.62.15.9.3s.53.33.74.55c.21.23.37.49.48.79.11.3.16.63.13.99l-1.31-.21c-.02-.36-.14-.65-.34-.86-.2-.21-.47-.35-.8-.4-.31-.05-.58-.03-.81.05-.23.08-.43.22-.6.39-.17.18-.3.39-.4.64-.1.25-.18.51-.22.78-.04.26-.05.52-.03.78.02.26.08.49.18.71.1.22.25.41.45.56.2.15.45.26.76.31.45.07.82.02,1.11-.17.28-.19.48-.5.59-.93l-1.38-.22.17-1.02,2.61.43-.55,3.36-.87-.14-.02-.73c-.3.27-.6.45-.92.53Z"></path><path class="cls-3" d="m96.74,115.55l-.46,1.07-3.06-1.3-.53,1.24,2.81,1.2-.42.99-2.81-1.2-.6,1.42,3.13,1.33-.46,1.07-4.4-1.87,2.47-5.8,4.34,1.85Z"></path><path class="cls-3" d="m99.96,117.17l1.37.84v2.36s2.15-1.05,2.15-1.05l1.3.79-3.29,1.52.16,3.96-1.41-.86-.04-2.58-2.33,1.13-1.33-.81,3.6-1.67-.17-3.62Z"></path><path class="cls-3" d="m110.05,124.19c.3.25.52.51.66.78.14.27.21.53.23.78.01.26-.03.5-.12.74-.09.24-.22.45-.39.65-.16.19-.35.36-.57.5-.22.14-.45.22-.71.26-.25.03-.52,0-.81-.08s-.58-.26-.88-.51l-1.12-.93-1.45,1.74-1.06-.89,4.04-4.84,2.18,1.82Zm-2.19,2.04c.12.1.25.19.38.27.13.08.26.12.39.14.13.02.26,0,.39-.05.13-.05.26-.15.39-.31.13-.15.21-.3.23-.44.03-.14.02-.27-.02-.39-.04-.12-.11-.24-.21-.35s-.21-.22-.33-.32l-.83-.69-1.21,1.45.83.69Z"></path><path class="cls-3" d="m117.69,131.86l-.87.78-2.22-2.48-1.01.9,2.04,2.27-.8.72-2.04-2.27-1.15,1.03,2.27,2.53-.87.78-3.2-3.56,4.69-4.21,3.15,3.51Z"></path><path class="cls-3" d="m122.07,137.95c.16.24.26.47.31.71s.05.47,0,.69c-.04.22-.13.43-.26.61-.13.19-.29.35-.49.48-.31.2-.62.31-.93.33-.31.02-.62-.08-.94-.3h-.01c.05.18.07.34.05.48-.02.15-.07.29-.14.42-.07.13-.17.25-.28.37-.11.11-.24.22-.36.32-.08.06-.18.13-.29.21-.11.08-.22.16-.33.25-.11.09-.21.18-.3.28s-.15.2-.19.3l-.76-1.16c.12-.17.3-.34.52-.51.22-.17.43-.33.62-.5.25-.22.4-.44.44-.65.04-.21-.03-.46-.22-.75l-.76-1.16-2.06,1.35-.76-1.16,5.27-3.47,1.87,2.84Zm-2.65,1.15c.17.27.36.43.57.48s.44,0,.71-.18c.26-.17.4-.36.43-.57.03-.21-.05-.45-.22-.71l-.83-1.27-1.48.98.83,1.27Z"></path><path class="cls-3" d="m125.64,144.35l-5.65,2.8-.61-1.24,5.65-2.8.61,1.24Z"></path><path class="cls-3" d="m128.93,152.59l-1.1.39-1.12-3.14-1.27.45,1.03,2.88-1.01.36-1.03-2.88-1.46.52,1.14,3.2-1.1.39-1.61-4.51,5.94-2.12,1.58,4.44Z"></path><path class="cls-3" d="m130.29,157.92l-3.66,3.38v.02s4.16-.8,4.16-.8l.25,1.27-6.19,1.19-.26-1.36,3.65-3.37v-.02s-4.15.8-4.15.8l-.25-1.27,6.19-1.19.26,1.35Z"></path><path class="cls-3" d="m130.31,165.64l1.16-.05.22,5.16-1.16.05-.08-1.89-5.13.22-.06-1.39,5.13-.22-.08-1.89Z"></path><path class="cls-3" d="m131.44,175.77l-6.29-.44.1-1.38,6.29.44-.1,1.38Z"></path><path class="cls-3" d="m130.41,183.01l-6.64,1.13.27-1.41,1.47-.2.44-2.32-1.29-.75.26-1.37,5.74,3.53-.27,1.4Zm-3.81-.65l2.42-.35v-.02s-2.11-1.24-2.11-1.24l-.31,1.6Z"></path><path class="cls-3" d="m128.5,190.12l-4.86-1.68-1,2.9-1.1-.38,1.46-4.21,5.96,2.06-.45,1.31Z"></path><path class="cls-3" d="m122.48,202.96l-4.43-1.14h0s2.86,3.56,2.86,3.56l-1.07,1.63-5.27-3.45.71-1.09,3.74,2.45h0s-2.89-3.76-2.89-3.76l.59-.89,4.55,1.13h0s-3.7-2.44-3.7-2.44l.71-1.09,5.27,3.45-1.07,1.63Z"></path><path class="cls-3" d="m114.92,212.73l-6.23-2.55.98-1.06,1.35.6,1.6-1.73-.69-1.32.95-1.02,3.01,6.03-.97,1.04Zm-2.89-2.57l2.24.99h.01s-1.14-2.19-1.14-2.19l-1.11,1.2Z"></path><path class="cls-3" d="m107.95,219.05c-.22.18-.45.3-.68.37-.23.07-.46.09-.69.07-.23-.02-.44-.09-.63-.2-.2-.11-.37-.26-.52-.45-.23-.29-.37-.59-.42-.9-.05-.31.02-.63.21-.96h-.01c-.16.06-.32.09-.47.08-.15,0-.29-.04-.43-.1-.14-.06-.27-.14-.39-.25-.12-.1-.24-.21-.35-.33-.07-.07-.14-.16-.23-.27-.09-.1-.18-.2-.28-.31-.1-.1-.2-.19-.31-.27-.1-.08-.21-.13-.31-.16l1.08-.86c.18.11.37.27.56.47.19.21.37.4.56.57.24.23.47.35.69.38.22.02.46-.07.73-.29l1.08-.86-1.53-1.93,1.08-.86,3.93,4.93-2.66,2.12Zm-1.39-2.54c-.25.2-.39.4-.43.61-.04.21.04.44.24.69.19.24.39.36.6.37s.44-.09.69-.28l1.19-.95-1.11-1.39-1.19.95Z"></path><path class="cls-3" d="m101.77,223.27l-1.29-2.27-.85,3.49-1.5.86.91-3.38-4.23-1.98,1.51-.86,3.05,1.53.29-1.09-1-1.77,1.2-.69,3.12,5.48-1.2.69Z"></path><path class="cls-3" d="m90.17,228.65l-.42-1.09,3.11-1.19-.48-1.26-2.85,1.09-.39-1.01,2.85-1.09-.55-1.44-3.17,1.22-.42-1.09,4.47-1.71,2.26,5.89-4.4,1.69Z"></path><path class="cls-3" d="m86.48,228.56l.26,1.14-5.04,1.15-.26-1.14,1.84-.42-1.14-5.01,1.35-.31,1.14,5.01,1.84-.42Z"></path><path class="cls-3" d="m76.71,231.5l-.7-6.27,1.38-.15.7,6.27-1.38.15Z"></path><path class="cls-3" d="m71.13,231.82l-2.56-4.27h-.02s-.07,4.23-.07,4.23l-1.3-.02.1-6.3,1.39.02,2.55,4.26h.02s.07-4.22.07-4.22l1.3.02-.1,6.3-1.38-.02Z"></path><path class="cls-3" d="m60.24,224.58c.32-.07.63-.08.93-.03.48.08.89.24,1.24.47.35.23.63.51.84.85.21.34.35.71.42,1.13s.07.85,0,1.3c-.08.46-.22.88-.43,1.26s-.47.69-.78.94-.67.43-1.08.53c-.41.1-.85.11-1.33.03-.32-.06-.62-.16-.9-.3-.28-.15-.53-.33-.74-.56-.21-.23-.37-.49-.48-.79-.11-.3-.15-.63-.12-.99l1.31.23c.02.36.13.65.33.86.2.21.47.35.8.41.31.05.58.04.81-.04.24-.08.44-.21.6-.39.17-.18.3-.39.41-.63.1-.24.18-.5.23-.78.05-.26.06-.52.04-.78-.02-.26-.08-.5-.18-.72-.1-.22-.25-.41-.44-.56-.19-.16-.44-.26-.75-.31-.45-.08-.82-.02-1.11.16-.29.19-.49.49-.6.92l1.37.24-.18,1.02-2.61-.45.58-3.36.87.15.02.73c.3-.27.61-.44.92-.52Z"></path><path class="cls-3" d="m49.21,222.86c-.01-.17-.06-.32-.14-.45-.08-.13-.19-.26-.33-.36-.14-.11-.29-.2-.46-.27-.11-.05-.24-.09-.38-.13-.14-.04-.28-.05-.41-.05-.14,0-.26.04-.38.1-.12.06-.21.17-.27.31-.07.16-.07.3-.02.45.06.14.15.28.29.41.13.14.29.27.48.41.18.14.37.28.55.43.19.15.37.31.54.47.17.17.31.35.42.54.11.19.17.41.19.64.02.23-.03.48-.15.74-.13.3-.31.53-.53.69-.22.16-.47.27-.74.33-.27.06-.55.06-.84.02-.29-.04-.56-.12-.82-.23-.3-.13-.58-.29-.83-.48-.25-.19-.45-.41-.6-.65-.15-.25-.24-.51-.26-.8-.02-.29.04-.6.18-.94l1.23.54c-.06.18-.09.34-.08.48.01.14.06.27.13.37.07.11.17.21.29.29.12.08.26.16.42.23.1.04.21.08.32.1.11.02.22.03.33,0,.11-.02.21-.05.29-.11.09-.06.16-.15.22-.27.05-.11.07-.21.06-.3-.01-.09-.07-.19-.17-.31-.1-.11-.25-.25-.45-.41-.2-.16-.46-.36-.78-.61-.1-.07-.23-.17-.4-.31-.17-.14-.32-.31-.45-.52-.13-.21-.23-.44-.27-.71-.05-.27,0-.56.14-.89.12-.26.27-.49.48-.67.2-.18.44-.31.71-.39.27-.08.58-.1.92-.06.34.04.71.14,1.1.32.32.14.61.31.88.52.27.21.48.45.63.71.16.27.25.56.27.88.02.32-.05.65-.21,1.01l-1.23-.54c.08-.19.12-.37.11-.54Z"></path><path class="cls-3" d="m39.27,223.16l3.18-5.44,1.2.7-3.18,5.44-1.2-.7Z"></path><path class="cls-3" d="m34.63,220.1l.47-4.96h-.01s-2.57,3.35-2.57,3.35l-1.03-.79,3.82-5.01,1.1.84-.48,4.95h.01s2.56-3.34,2.56-3.34l1.03.79-3.82,5.01-1.1-.84Z"></path><path class="cls-3" d="m26.67,210.7c-.04.15-.05.31-.04.46.01.16.05.31.12.47.07.15.16.29.28.41.22.23.44.38.68.45.24.07.48.09.72.05.24-.04.48-.13.71-.26.23-.13.45-.3.65-.49.19-.18.36-.38.5-.6.14-.22.23-.44.29-.68.05-.24.05-.47-.02-.72-.06-.24-.2-.47-.42-.7-.29-.31-.61-.46-.97-.45-.35,0-.7.14-1.04.39l-.93-.97c.31-.25.63-.43.96-.54.33-.11.66-.16.99-.14.33.02.65.11.96.26.31.15.6.37.86.65.33.35.57.72.72,1.12.14.39.2.79.17,1.18-.03.39-.14.78-.33,1.16-.19.38-.45.72-.78,1.04-.34.32-.71.58-1.1.75-.39.18-.78.27-1.18.29-.4.02-.79-.06-1.18-.22-.39-.16-.75-.42-1.08-.77-.24-.25-.43-.52-.57-.82-.14-.29-.23-.59-.26-.9-.03-.31,0-.62.1-.93.1-.31.26-.61.5-.89l.93.97c-.1.13-.17.27-.21.42Z"></path><path class="cls-3" d="m19.15,203.7l.96-.67,1.91,2.73,1.11-.77-1.75-2.5.88-.62,1.75,2.5,1.27-.89-1.95-2.79.95-.67,2.74,3.92-5.17,3.61-2.7-3.86Z"></path><path class="cls-3" d="m19.99,191.65l-3.71,1.51.59,1.44-.87.36c-.08-.2-.17-.39-.28-.57-.11-.17-.24-.32-.39-.43-.15-.11-.32-.19-.51-.24-.19-.04-.4-.04-.63.02l-.38-.92,5.72-2.33.47,1.16Z"></path><path class="cls-3" d="m16.82,185.62c.11-.18.14-.38.08-.59-.06-.22-.17-.39-.34-.5-.17-.11-.35-.18-.56-.22-.21-.04-.42-.05-.64-.03-.22.02-.41.04-.58.08v.02c.27.1.49.25.65.45.16.2.28.44.36.73.07.26.08.52.03.8-.05.27-.14.52-.28.74-.14.21-.32.38-.53.51-.21.14-.44.23-.68.3-.31.08-.61.11-.9.08-.29-.03-.56-.11-.8-.25-.24-.13-.46-.31-.64-.54-.18-.23-.31-.5-.39-.81-.12-.46-.13-.85-.03-1.19.1-.34.28-.64.52-.89.25-.25.55-.46.9-.63.35-.17.72-.3,1.09-.4.37-.1.75-.15,1.14-.16.39-.01.76.04,1.11.15.35.11.65.29.92.54.26.25.45.58.56,1.01.07.26.09.5.08.75-.01.24-.07.47-.17.67-.1.21-.23.39-.41.56-.18.16-.39.29-.64.4l-.3-1.15c.19-.09.34-.23.45-.41Zm-2.22-.51c-.09-.1-.2-.18-.32-.24-.12-.05-.26-.08-.4-.09-.14,0-.29.01-.44.05-.14.04-.27.09-.39.17-.12.08-.23.17-.31.28-.08.11-.14.23-.17.37-.03.14-.03.28.01.43.04.14.1.26.19.36.09.1.2.17.32.23.12.05.26.08.4.09.14,0,.28,0,.42-.05.14-.04.28-.09.4-.16.12-.07.23-.16.32-.26.09-.1.15-.22.18-.35.03-.13.03-.28,0-.43-.04-.17-.11-.3-.2-.4Z"></path><path class="cls-3" d="m11.24,180.28c-.23-.1-.42-.23-.59-.41-.16-.18-.3-.38-.4-.62-.1-.24-.17-.48-.2-.73-.05-.38-.03-.71.05-.99.08-.28.2-.51.34-.69.15-.18.31-.32.49-.41.18-.09.35-.15.5-.17.3-.04.58,0,.83.12.25.12.44.32.58.61h.02c.04-.38.17-.69.41-.92.24-.23.55-.37.94-.42.33-.04.62-.01.87.09.26.1.48.25.66.45.19.2.33.43.45.69.11.26.19.54.23.83.04.3.04.59,0,.88-.04.29-.12.55-.25.79s-.31.44-.53.6c-.22.16-.5.26-.83.31-.39.05-.73,0-1.02-.18-.29-.17-.5-.43-.63-.79h-.02c-.04.31-.17.55-.38.74-.21.18-.46.29-.77.33-.27.03-.52,0-.75-.09Zm1.29-1.41c.11-.2.15-.43.12-.68-.03-.26-.13-.47-.29-.63-.16-.16-.37-.22-.63-.19-.08.01-.17.03-.26.07-.09.04-.18.09-.26.17-.08.08-.14.18-.18.31-.04.13-.05.29-.03.48.02.12.05.24.1.35.05.11.12.2.2.28s.18.14.29.17.24.05.38.03c.26-.03.45-.15.56-.36Zm2.48.02c.12-.07.22-.17.3-.27.08-.11.13-.23.17-.37.03-.14.04-.28.02-.43-.02-.15-.06-.29-.13-.41-.07-.12-.15-.22-.25-.31-.1-.08-.22-.15-.36-.18-.14-.04-.28-.04-.43-.03-.15.02-.28.06-.39.13-.11.07-.21.16-.28.27-.08.11-.13.23-.16.36-.03.13-.04.27-.02.42.04.3.15.55.35.74.19.19.45.26.76.22.16-.02.3-.07.42-.14Z"></path><path class="cls-3" d="m11.05,172.57c-.3-.1-.56-.24-.79-.44-.22-.19-.4-.43-.52-.72-.12-.29-.18-.62-.17-.99,0-.28.05-.55.15-.81.09-.25.22-.48.39-.67.17-.19.37-.34.62-.45.24-.11.51-.16.82-.16.31,0,.58.06.8.16.22.1.42.24.59.41.17.17.33.36.46.57.14.21.27.42.41.64.13.21.28.42.44.63.16.2.34.38.55.54l.05-2.92,1.08.02-.07,4.54c-.36,0-.67-.06-.93-.17-.26-.11-.5-.25-.7-.43-.21-.18-.4-.39-.57-.63-.17-.24-.35-.5-.53-.76-.09-.14-.19-.28-.28-.44-.09-.15-.2-.3-.32-.42-.12-.13-.25-.24-.39-.32-.15-.09-.31-.13-.5-.14-.3,0-.54.08-.71.25-.17.17-.26.39-.26.66,0,.18.04.34.12.47.08.13.19.23.33.31.14.08.29.14.46.17.17.04.33.05.5.06l-.02,1.2c-.35,0-.68-.04-.98-.14Z"></path></g><path class="cls-5" d="m13.23,159.59c.4,0,.72.32.72.72s-.32.72-.72.72-.72-.32-.72-.72.32-.72.72-.72m0-.16c-.48,0-.88.39-.88.88s.39.88.88.88.88-.39.88-.88-.39-.88-.88-.88h0Z"></path></g><g><path class="cls-3" d="m110.2,154.52c-.51-2.93-3.04-5.05-6.01-5.05-.35,0-.71.03-1.06.09-3.32.58-5.54,3.75-4.96,7.06.51,2.93,3.04,5.05,6.01,5.05h0c.35,0,.71-.03,1.06-.09,1.61-.28,3.01-1.17,3.94-2.5.94-1.33,1.3-2.95,1.02-4.56Zm-5.05,6.58c-3.05.53-5.96-1.51-6.5-4.56-.53-3.06,1.51-5.96,4.57-6.5,3.06-.53,5.96,1.51,6.5,4.57.53,3.05-1.51,5.96-4.57,6.5Z"></path><path class="cls-3" d="m98.55,169.26c1.08-.65,1.52-1.81,1.25-3.33-.28-1.62-1.68-2.79-3.32-2.79-.19,0-.39.02-.58.05-1.4.24-2.38,1.1-2.67,2.3-1.01-.32-2.09-.49-3.2-.49-5.88,0-10.65,4.77-10.65,10.65s4.77,10.65,10.65,10.65,10.65-4.77,10.65-10.65c0-2.4-.79-4.61-2.13-6.4Zm-2.56-5.59c1.57-.27,3.06.78,3.33,2.34.21,1.18-.03,2.26-1.08,2.86h0c-.07.04-.14.08-.22.11,0,0-.01,0-.02,0-.03.01-.06.03-.1.04-.04.02-.08.03-.13.05l-.51.19c-1.67.69-2.63,2.49-2.31,4.35l.16.76c.03.13.06.27.09.41.5,2.87-1.42,5.6-4.29,6.1-2.87.5-5.6-1.42-6.1-4.28-.5-2.87,1.23-5.41,4.28-5.99l1.34-.21c1.79-.31,3.13-1.67,3.19-3.48,0,0,0-.59,0-.81,0-.04,0-.08,0-.12,0-.03,0-.06.01-.09,0,0,0-.02,0-.02,0-.04.01-.08.02-.11,0,0,0,0,0,0,0-.04.01-.07.02-.11.25-1.1,1.18-1.79,2.29-1.98Z"></path><polygon class="cls-3" points="30.63 170.14 38.36 170.14 38.36 186.09 44.7 186.09 44.7 170.14 52.43 170.14 52.43 165.01 30.63 165.01 30.63 170.14"></polygon><path class="cls-3" d="m63.21,186.07v-7.9h2.51l3.8,7.9h7.04l-4.34-9.02c1.75-1.18,2.91-3.17,2.91-5.44,0-3.63-2.94-6.57-6.57-6.57-.03,0-.05,0-.07,0-.27-.02-.54-.03-.82-.03h-10.82v21.06h6.36Zm0-17.01h3-.14s.18,0,.2,0c1.41,0,2.55,1.14,2.55,2.55s-1.14,2.55-2.55,2.55c-.02,0-.18,0-.2,0h.14s-3,0-3,0v-5.1Z"></path></g></g></g></svg>